<?xml version="1.0" encoding="UTF-8"?>
<svg xmlns="http://www.w3.org/2000/svg" version="1.1" viewBox="-370 -540 1930 1930">
  <defs>
    <style>
      .cls-1 {
        fill: #20294e;
      }

      .cls-2 {
        fill: #fff;
      }
    </style>
  </defs>
  <!-- Generator: Adobe Illustrator 28.7.4, SVG Export Plug-In . SVG Version: 1.2.0 Build 166)  -->
  <g>
    <g id="Ebene_1">
      <g>
        <path class="cls-2" d="M594.5,1379.89c529.37,0,958.5-429.13,958.5-958.5s-429.13-958.5-958.5-958.5S-364-107.98-364,421.39s429.14,958.5,958.5,958.5h0Z"/>
        <path class="cls-1" d="M594.5,1320.49c496.56,0,899.1-402.54,899.1-899.1s-402.54-899.1-899.1-899.1S-304.6-75.17-304.6,421.39s402.54,899.1,899.1,899.1h0Z"/>
        <path class="cls-2" d="M594.5,1293.52c481.67,0,872.13-390.46,872.13-872.13s-390.46-872.13-872.13-872.13S-277.63-60.28-277.63,421.39s390.47,872.13,872.13,872.13h0Z"/>
        <path class="cls-1" d="M594.5,1276.08c472.03,0,854.69-382.66,854.69-854.69s-382.66-854.69-854.69-854.69S-260.19-50.64-260.19,421.39s382.66,854.69,854.69,854.69h0Z"/>
        <path class="cls-2" d="M594.5,999.15c319.09,0,577.76-258.67,577.76-577.76S913.59-156.37,594.5-156.37,16.74,102.3,16.74,421.39s258.67,577.76,577.76,577.76h0Z"/>
        <path class="cls-1" d="M594.5,981.99c309.61,0,560.6-250.99,560.6-560.6S904.11-139.21,594.5-139.21,33.9,111.78,33.9,421.39s250.99,560.6,560.6,560.6h0Z"/>
        <path class="cls-2" d="M594.49,43.42h320.23c1.06,0,2.12-.02,3.19-.01,13.72.08,14.41.73,14.36,14.84-.24,58.32-.66,116.64-.73,174.95-.03,36.08.64,72.17.65,108.26.02,28.06-.24,56.14-.82,84.19-1.11,53.81-11.96,105.5-32.71,154.93-24.08,57.37-57.99,108.09-97.25,155.5-34.83,42.06-74.34,78.75-115.77,113.57-24.69,20.75-50.62,39.6-77,57.92-10.4,7.23-18.68,6.8-28.72-.35-35.78-25.47-70.88-51.81-104.01-80.91-42.66-37.48-81.51-78.79-115.38-124.74-24.37-33.07-45.52-68.37-63.13-105.98-13.77-29.42-24.08-59.89-31.18-91.53-6-26.72-8.1-54.04-8.42-81.43-.53-44.83-.88-89.66-.99-134.49-.05-22.23.93-44.46.87-66.69-.14-53.58-.65-107.16-.93-160.74-.09-16.94.38-17.32,16.47-17.32,107.1,0,214.19,0,321.29,0v.03h0Z"/>
        <path class="cls-1" d="M743.16,186.25c2.53-16.98,6.03-33.38,7.17-49.94,1.32-19.25-10.84-31.45-30.18-32.81-23.04-1.62-33.86,8.5-35.67,33.2-.35,4.83-1.14,8.85-4.65,13.43-4.69,6.12-.34,13.88,3.46,20.4,1.27,2.17,2.4,4.88,2.32,7.3-.15,4.92-1.89,8.2-8.16,8.64-31.21,2.19-59.04,14.56-84.48,31.66-18.21,12.24-34.88,26.82-51.8,40.88-4.06,3.37-7.11,8.51-9.35,13.42-12.85,28.13-25.41,56.39-37.85,84.71-4.4,10.02-2.74,13.7,7.66,17.79,6.86,2.7,13.4,7.72,21.5,4.32,7.23-3.04,10.2-9.71,12.23-16.34,1.79-5.84-1.37-10.59-6.77-13.67-4.68-2.67-3.93-6.54-1.23-9.91,9.02-11.23,17.65-22.88,27.66-33.17,7.93-8.14,15.29-16.22,20.53-26.45,1.96-3.82,6.36-7.2,10.43-8.98,12.53-5.47,25.44-10.06,39.32-15.42.41,3.12,1.31,6.55,1.22,9.95-.17,6.6-1.57,13.21-1.29,19.77,1.09,24.93-9.22,44.41-26.59,61.56-12.19,12.04-23.62,25.08-33.84,38.82-6.15,8.27-8.79,19.05-13.95,28.17-6.86,12.15-14.4,23.93-22.11,35.57-3.93,5.94-7.27,11.69-5.68,19.11.1.44.23.99.07,1.36-7.11,16.13-10.63,34.2-27.09,44.98-18.92,12.39-34.51,27.9-43.27,49.48-6.54,16.13-13.94,31.91-20.77,47.93-3.13,7.34-7.4,13.43-13.99,18.28-4.29,3.16-7.61,7.79-10.96,12.07-5.51,7.04-10.42,14.57-16.08,21.49-8.91,10.87-3.28,33.73,15.33,39.29,6.53,1.95,11.24-2.65,14.01-7.77,9.76-18.05,18.93-36.41,28.47-54.58,2.65-5.04,5.09-10.53,8.93-14.57,12.63-13.31,26.11-25.8,38.75-39.09,6.08-6.4,10.92-13.95,16.46-20.87,4.15-5.19,8.53-10.2,13.8-14.56-1.26,13.33-4.37,25.56-13.19,35.57-7.3,8.29-12.9,17.35-12.43,28.93.11,2.71.56,5.49,1.36,8.08,2.76,8.85,11.24,12.04,18.33,6.08,6.25-5.25,12.04-11.4,16.75-18.07,7.49-10.6,13.32-22.41,21-32.86,5.38-7.32,12.57-12.66,22.71-13.86,19.75-2.34,39.36-5.85,59.01-8.99,1.74-.28,3.56-1.08,5.01-2.12,19.01-13.52,36.41-28.71,49.59-48.23.89-1.32,1.76-2.77,2.18-4.28,3.97-14.36,11.14-26.81,20.04-38.79,3.6-4.84,3.23-12.94,3.8-19.63,1.14-13.43,1.48-26.93,2.66-40.36.23-2.68,2.35-5.52,4.28-7.68,5.65-6.33,7.48-13.67,8.46-21.97.86-7.25,2.89-14.98,6.62-21.16,13.24-21.92,22.81-45.26,30.7-69.52,2.36-7.23,7.07-13.78,11.25-20.3,2.58-4.01,5.69-4.26,10.39-1.24,7.5,4.81,13.82,12.47,22.73,12.13,8.27,13.22,16.53,25.6,23.95,38.47,10.63,18.43,18.86,37.79,17.84,59.72-.15,3.18-1.9,6.3-3,9.42-.52,1.49-1.65,2.86-1.79,4.36-.46,5.18-.98,10.41-.71,15.59.11,2.01,2.24,3.91,3.45,5.86,1.17-1.68,2.68-3.22,3.42-5.07,1.29-3.24,2.11-6.66,3.48-11.17,3.65,4.54,6.74,7.4,1.63,11.37-1.01.79-1.5,4.35-.95,4.73,4.09,2.76,8.3,6.4,12.87,7.07,4.66.68,9.01-2.53,10.56-8,3.37-11.83,3.98-22.24-1.88-34.78-9.1-19.48-14.9-40.77-20.01-61.79-6.09-25-13.67-49.18-29.71-69.53-14.83-18.8-31.13-36.2-55.89-42.38-13.02-3.25-25.8-7.46-38.08-11.06h0ZM608.02,484.91c.84,6.09,1.78,10.6,1.95,15.14.07,1.9-.98,4.43-2.4,5.71-7.95,7.19-16.04,14.24-24.35,21.02-4.4,3.6-9.2,6.78-14.1,9.66-1.62.96-4.52,1.18-6.16.37-3.51-1.74-6.59-4.37-10.12-6.82,5.75-6.74,11.61-14.03,17.99-20.83,1.81-1.92,5.18-3.45,7.79-3.38,9.09.26,14.8-4.96,20.26-11.01,2.7-2.99,5.48-5.91,9.14-9.86h0Z"/>
        <path class="cls-1" d="M595.29,703.49c24.83,0,44.72-19.91,44.42-44.47-.31-24.45-20.02-43.95-44.42-43.96-24.57-.01-44.67,20.17-44.49,44.66.17,24.32,19.93,43.77,44.49,43.77h0Z"/>
        <path class="cls-2" d="M-190.19,266.85l-2.77,28.67,36.87,20.09-7.27,75.32-40.01,12.45-2.85,29.58,167.18-54.61,2.5-25.94-153.66-85.56h0ZM-132.27,328.25l61.08,33.45-66.37,21.39,5.29-54.84h0ZM-201.28,462.42l1.6,27.62,166.6-9.64-1.6-27.61-166.6,9.63h0ZM-188.98,584.45c4.36,21.74,16.21,35.45,31.9,43.96l10.93-18.75c-11.08-7.57-17.9-15.99-20.55-29.22-3.51-17.48,4.51-33.31,23.2-40.09l17.45,86.96c2.73-.32,5.24-.59,7.71-1.08,34.07-6.84,59.83-31.83,52.27-69.48-6.79-33.85-39.4-52.25-73.24-45.46l-.45.09c-36.53,7.33-56.1,38.77-49.22,73.07h0ZM-125.62,536.52c18.87-1.22,33.99,7.87,37.32,24.46,3.6,17.93-8,30.98-25.13,36.28l-12.19-60.74h0ZM-167.28,675.33l11.66,25.09,61.77-28.73c16.79-7.8,31.59-3.09,38.05,10.8,6.46,13.89.78,26.61-16.22,34.52l-62.39,29.01,11.66,25.08,61.77-28.72c17.62-8.19,31.68-2.89,38.05,10.79,6.55,14.1.98,26.52-16.43,34.62l-62.18,28.91,11.66,25.09,69.86-32.49c26.74-12.43,35.12-33.98,24.04-57.81-7.71-16.59-20.78-24.63-36.43-27.94,8.91-11.2,11.37-25.96,4.05-41.71-7.81-16.79-21.36-22.09-34.38-24.6l16.58-7.72-11.66-25.08-109.45,50.89h0ZM-42.63,905.05c11.43,14.57,25.31,19.66,38.12,20.07l-11.87,9.31L.28,955.65l56.29-44.17c12.41-9.74,19.94-20.88,21.27-33.25,1.61-12.02-2.94-25.59-14.09-39.8-11.86-15.11-22.96-22.96-35.82-29.72l-12.57,19.16c10.37,5.81,18.92,11.89,27.24,22.5,11.99,15.29,11.29,29.2-2.2,39.79l-2.34,1.83c-3.45-9.21-7.76-18.03-16.08-28.64-18.21-23.2-40.84-31.3-61.34-15.21l-.36.28c-19.06,14.96-16.9,38.83-2.92,56.63h0ZM-22,898.75c-8.18-10.43-9.32-22.62-.15-29.82l.36-.28c9.89-7.76,22.32-4.14,33.33,9.88,6.77,8.64,10.94,17.28,13.16,24.55l-6.47,5.08c-12.05,9.45-28.93,4.97-40.22-9.41h0ZM28.77,985.23l20.89,18.13,44.65-51.45c12.29-14.16,28.09-15.27,40.17-4.78,12.43,10.79,12.46,25.04.18,39.2l-44.95,51.79,20.89,18.13,50.5-58.18c18.28-21.06,18.36-45.21-2.19-63.04-14.16-12.29-29.06-12.21-42.27-8.84l12.14-13.99-20.89-18.13-79.12,91.16h0ZM143.74,1079.59l23.78,14.12,34.79-58.57c9.57-16.12,24.92-20.03,38.68-11.86,14.15,8.41,16.72,22.43,7.15,38.55l-35.02,58.96,23.78,14.13,39.34-66.24c14.24-23.98,10.02-47.76-13.37-61.65-16.12-9.57-30.77-6.84-43.17-1.17l9.45-15.93-23.78-14.12-61.63,103.78h0ZM325.94,1020.56l27.34,11.66,10.31-24.18-27.34-11.66-10.31,24.18h0ZM272.37,1149.06l25.44,10.86,47.35-111.03-25.44-10.85-47.35,111.02h0ZM366.74,1186.23c17.85,4.91,32.04.75,42.58-6.55l-4,14.55,26.01,7.15,18.98-68.99c4.18-15.2,3.61-28.64-2.68-39.38-5.85-10.62-17.58-18.82-34.99-23.61-18.51-5.1-32.11-4.81-46.47-2.59l1.29,22.88c11.79-1.5,22.28-1.7,35.28,1.88,18.73,5.15,26.45,16.76,21.9,33.29l-.79,2.87c-8.25-5.36-16.96-9.89-29.96-13.46-28.43-7.83-51.45-.88-58.36,24.25l-.12.44c-6.43,23.36,9.51,41.26,31.33,47.27h0ZM379.57,1168.89c-12.78-3.52-20.94-12.64-17.85-23.88l.12-.44c3.33-12.12,15.47-16.61,32.67-11.88,10.58,2.91,19.07,7.38,25.18,11.91l-2.18,7.93c-4.06,14.77-20.3,21.21-37.93,16.36h0ZM590.58,1216.24l28.35-.17-.84-133.96,50.75-.32-.16-26.06-129.84.82.16,26.06,50.75-.32.84,133.95h0ZM701,1210.81l27.14-5.34-13.14-66.84c-3.61-18.39,5.22-31.54,20.92-34.63,16.15-3.18,27.42,5.56,31.03,23.95l13.23,67.29,27.14-5.33-14.86-75.59c-5.38-27.37-24.38-42.27-51.08-37.02-18.39,3.61-27.48,15.42-32.95,27.91l-12.48-63.48-27.14,5.34,32.19,163.74h0ZM879.1,1167.17c17.21-6.85,26.01-18.72,30.03-30.89l5.58,14.01,25.06-9.97-26.46-66.48c-5.84-14.66-14.39-25.03-25.89-29.8-11.07-4.94-25.38-4.42-42.16,2.26-17.84,7.1-28.51,15.53-38.63,25.96l14.83,17.47c8.5-8.31,16.75-14.79,29.28-19.77,18.06-7.19,31.21-2.58,37.55,13.35l1.1,2.76c-9.81.7-19.49,2.34-32.02,7.33-27.4,10.9-41.57,30.32-31.93,54.54l.17.42c8.96,22.51,32.47,27.18,53.49,18.81h0ZM878.89,1145.61c-12.32,4.9-24.33,2.54-28.64-8.29l-.17-.42c-4.65-11.68,2.33-22.58,18.89-29.18,10.2-4.05,19.67-5.61,27.27-5.68l3.04,7.65c5.66,14.23-3.4,29.15-20.39,35.92h0ZM973.32,1121.61l24.11-13.55-81.74-145.49-24.11,13.55,81.74,145.49h0ZM1077.1,1058.47c17.89-13.09,25.36-29.6,26.49-47.42l-21.6-2.04c-2.22,13.24-7,22.96-17.89,30.93-14.39,10.52-32.12,9.9-46.13-4.21l71.59-52.37c-1.43-2.35-2.73-4.51-4.22-6.54-20.51-28.05-54.01-40.93-85.01-18.26-27.86,20.38-30.86,57.7-10.48,85.56l.27.37c21.99,30.08,58.75,34.63,86.98,13.98h0ZM1006.99,1021.1c-9.03-16.61-7.13-34.15,6.52-44.14,14.76-10.79,31.48-5.75,43.49,7.57l-50.01,36.57h0ZM1066.96,905.91l-20.81,21.85,72.2,10.03,14.12,74.35,20.33-21.35-10.79-51,51.62,8.11,20.8-21.85-75.28-10.44-13.4-71.46-20.33,21.36,10.07,48.1-48.53-7.7h0ZM1253.56,874.64l12.8-21.12-56.46-66.04,84.55,19.72,12.92-21.31-83.5-96.87-14.45,23.85,57.96,64.01-85.02-20.26-12.32,20.33,57.28,66.01-83.32-22.18-14.7,24.24,124.26,29.62h0ZM1354.9,671.82c7.05-21.02,3.62-38.81-5.74-54.01l-18.82,10.8c5.83,12.09,7.54,22.79,3.25,35.57-5.68,16.91-20.52,26.64-40.1,23.2l28.23-84.09c-2.53-1.09-4.84-2.1-7.23-2.9-32.94-11.06-67.73-2.24-79.95,34.17-10.98,32.72,8.11,64.93,40.83,75.91l.43.15c35.33,11.86,67.97-5.64,79.1-38.8h0ZM1276.08,681.78c-16.97-8.35-25.54-23.77-20.16-39.81,5.82-17.33,22.39-22.86,39.87-18.92l-19.71,58.73h0ZM1237.84,562.05l5.48-29.2-25.84-4.85-5.48,29.21,25.84,4.84h0ZM1374.88,586.59l5.1-27.19-118.63-22.24-5.1,27.18,118.63,22.25h0ZM1385.2,523.4l3.01-27.49-165.89-18.15-3.01,27.5,165.89,18.14h0ZM1393.29,400.99c-.71-22.16-10.13-37.64-24.2-48.63l-13.87,16.68c9.67,9.3,15.01,18.73,15.44,32.21.57,17.82-9.95,32.11-29.5,35.71l-2.85-88.65c-2.75-.14-5.27-.29-7.78-.21-34.73,1.12-64.27,21.5-63.04,59.89,1.11,34.5,30.23,58.04,64.73,56.93h.46c37.24-1.21,61.74-28.99,60.61-63.94h0ZM1322.89,437.78c-18.82-1.91-32.23-13.38-32.77-30.28-.58-18.28,13.02-29.24,30.78-31.64l1.99,61.92h0ZM1383.43,313.59l-5.1-27.19-45.16,8.47c-31.46,5.9-50.08-7.82-54.55-31.64l-.29-1.57-28.76,5.39c3.02,21.06,17.72,32.49,36.86,36.58l-26.74,5.01,5.1,27.19,118.64-22.25h0Z"/>
        <path class="cls-2" d="M98.55,14.1c21.85-27.2,22.73-57.85-1.5-77.32l-.37-.3c-21.46-17.24-42.56-11.06-71.22,10.97C-.53-32.32-9.73-29.97-19.72-38l-.37-.3c-8.51-6.84-9.11-20.11,1.59-33.43,9.51-11.84,23.5-19.78,41.56-24.45l-7.39-26.03c-21.1,4.66-38.87,15.04-54.04,33.91-20.66,25.71-20.17,56.55,2.03,74.39l.37.3C-12.1,5.57,8.52-3.43,37.33-25.65c24.87-19.59,34.03-20.76,43.28-13.32l.37.3c9.62,7.73,9.14,21.96-2.15,36.02-12.78,15.91-29,23.58-49.69,27.36l5.28,26.77c26.36-4.39,48.22-17.58,64.12-37.37h0ZM174.94-20.24l22.35-18.03-36.06-44.7c14.14,3.54,30.85,3.47,47.11-9.64,23.09-18.62,30.51-54.79,4.43-87.12l-.3-.37c-26.22-32.51-63.18-32.59-86.08-14.11-15.89,12.81-19.49,29.14-18.5,45.11l-13.11-16.26-22.35,18.03L174.94-20.24h0ZM187.34-107.69c-15.15,12.22-38.58,10.38-53.63-8.27l-.3-.37c-15.05-18.66-11.88-41.95,3.27-54.16,15.15-12.22,37.88-10.12,53.07,8.72l.3.37c15.49,19.21,12.62,41.35-2.71,53.72h0ZM326.11-164.81c34.74-17.01,47.28-56.17,31.63-88.14l-.21-.43c-15.75-32.19-53.95-45.99-88.48-29.09-34.53,16.9-47.07,56.07-31.32,88.25l.21.43c15.65,31.97,53.85,45.78,88.17,28.98h0ZM315.48-187.62c-20.04,9.81-42.35.38-51.95-19.23l-.21-.43c-9.6-19.61-4.31-42.28,16.37-52.4,20.25-9.91,42.56-.49,52.27,19.34l.21.43c9.49,19.4,4.21,42.07-16.68,52.29h0ZM406.28-200.12l27.75-7.41-12.31-46.09c-8.57-32.1,4.17-52.45,28.48-58.94l1.6-.43-7.84-29.35c-21.57,4.78-32.25,20.89-34.98,41.03l-7.28-27.29-27.74,7.41,32.32,121.07h0ZM538.73-224.02c10.85-1.25,18.36-4.5,24.97-9.32l-2.68-23.34c-5.33,3.48-10.83,5.54-17.2,6.28-9.67,1.11-15.84-2.72-17.11-13.8l-7.02-61.06,33.48-3.85-2.82-24.52-33.48,3.85-3.93-34.19-28.53,3.28,3.93,34.19-15.8,1.82,2.82,24.52,15.8-1.82,7.54,65.54c3.14,27.35,19.05,34.84,40.04,32.42h0ZM627.19-226.66l25.82,1.57,58.82-122.91-30.08-1.83-39.46,89.85-28.05-93.96-30.79-1.87,43.75,129.15h0ZM767.58-201.09c22.16,6.23,40.43,1.75,55.71-8.74l-12.17-18.95c-12.23,6.67-23.24,9-36.72,5.21-17.82-5.01-28.67-19.9-26.12-40.38l88.64,24.92c1-2.68,1.94-5.13,2.64-7.64,9.77-34.73-1.17-70.34-39.56-81.13-34.49-9.7-66.9,11.76-76.6,46.26l-.13.46c-10.47,37.24,9.36,70.18,44.31,80h0ZM753.19-282.29c7.78-18.03,23.32-27.71,40.23-22.96,18.27,5.14,24.86,22.03,21.68,40.36l-61.91-17.41h0ZM841.66-177.98l25.95,12.3,20.43-43.11c14.22-30.02,37.1-37.3,59.84-26.53l1.5.71,13-27.45c-19.53-10.31-38.1-4.92-53.21,8.67l12.09-25.52-25.95-12.3-53.65,113.24h0ZM965.39-103.67c18.77,13.33,37.48,15.27,55.4,10.53l-5.08-21.95c-13.76,2.16-24.91.65-36.33-7.46-15.09-10.72-20.29-28.39-10.99-46.82l75.07,53.32c1.84-2.18,3.55-4.17,5.06-6.3,20.89-29.41,22.59-66.63-9.92-89.72-29.21-20.75-66.96-11.47-87.71,17.75l-.28.39c-22.4,31.54-14.82,69.23,14.78,90.26h0ZM979.19-184.98c13.4-14.35,31.29-18.23,45.61-8.06,15.48,10.99,16,29.12,6.82,45.31l-52.43-37.24h0ZM1126.52-161.61l22.29,21.33,18.87-19.72-22.3-21.33-18.86,19.72h0ZM1027.47-56.35l20.75,19.85,86.62-90.55-20.75-19.85-86.62,90.55h0ZM1069.09-17.18l17.73,22.6,55.64-43.64c15.32-12.01,31.64-10.04,41.9,3.04,10.54,13.45,7.77,27.98-7.54,39.99l-56.03,43.94,17.72,22.6,62.94-49.35c22.78-17.87,27.61-42.47,10.18-64.69-12-15.31-27.21-18.17-41.34-17.34l15.13-11.86-17.73-22.6-98.6,77.33h0Z"/>
      </g>
    </g>
  </g>
</svg>