<?xml version="1.0" encoding="UTF-8"?>
<!-- Generator: Adobe Illustrator 23.0.1, SVG Export Plug-In . SVG Version: 6.00 Build 0)  -->
<svg version="1.1" id="Ebene_1" xmlns="http://www.w3.org/2000/svg" xmlns:xlink="http://www.w3.org/1999/xlink" x="0px" y="0px" viewBox="0 0 595.28 241.33" style="enable-background:new 0 0 595.28 241.33;" xml:space="preserve">
<style type="text/css">
	.st0{fill:#FFDD00;stroke:#006B52;stroke-width:24.4305;}
	.st1{fill:#FFDD00;}
	.st2{fill:#006B52;}
</style>
<g>
	<path class="st0" d="M569.6,65.06l-373.38-0.21c-17.4-24.14-45.74-39.86-77.77-39.87c-52.95-0.03-95.89,42.87-95.92,95.81   c-0.02,52.94,42.88,95.89,95.81,95.92c32.27,0.02,60.8-15.9,78.19-40.32l373,0.21L569.6,65.06z"/>
	<path class="st1" d="M569.57,64.81H196.2c-17.41-24.12-45.76-39.83-77.78-39.83c-52.95,0-95.86,42.92-95.86,95.86   c0,52.94,42.91,95.86,95.86,95.86c32.27,0,60.8-15.93,78.16-40.36h373V64.81z"/>
</g>
<g>
	<path class="st2" d="M223.83,120.58c0,3.14-0.55,6.07-1.67,8.77c-1.12,2.71-2.75,5.12-4.89,7.25c-2.15,2.09-4.63,3.69-7.43,4.81   c-2.79,1.11-5.78,1.67-8.94,1.67c-3.19,0-6.19-0.56-8.99-1.67c-2.78-1.12-5.28-2.73-7.43-4.87c-2.13-2.07-3.74-4.45-4.83-7.15   c-1.09-2.69-1.64-5.63-1.64-8.81c0-3.18,0.55-6.13,1.64-8.85c1.09-2.72,2.7-5.11,4.83-7.18c2.15-2.11,4.62-3.72,7.41-4.82   c2.79-1.1,5.8-1.65,9.02-1.65c3.23,0,6.24,0.55,9.03,1.65c2.79,1.1,5.26,2.71,7.44,4.82c2.1,2.09,3.7,4.49,4.81,7.21   C223.28,114.48,223.83,117.41,223.83,120.58z M200.89,128.66c2.17,0,3.91-0.74,5.23-2.21c1.32-1.47,1.99-3.43,1.99-5.87   c0-2.46-0.67-4.44-1.99-5.94c-1.32-1.49-3.06-2.24-5.23-2.24c-2.16,0-3.91,0.75-5.24,2.26c-1.33,1.5-1.99,3.48-1.99,5.92   c0,2.44,0.66,4.39,1.99,5.87C196.99,127.92,198.74,128.66,200.89,128.66z"/>
	<path class="st2" d="M227.31,141.93V99.05h15.43v28.97h15v13.91H227.31z"/>
	<path class="st2" d="M259.89,141.93l19.18-30.11h-14.99V99.05h39.54l-18.66,29.67h16.55v13.21H259.89z"/>
	<path class="st2" d="M305.88,141.93V99.05h15.44v14.26h9.4V99.05h15.39v42.88h-15.39v-15.12h-9.4v15.12H305.88z"/>
	<path class="st2" d="M348.56,141.93l15.29-42.88h17.17l15,42.88h-16.58l-1.38-5.4h-11.62l-1.32,5.4H348.56z M369,126.35h6.43   l-1.32-4.86c-0.65-2.46-1.09-4.35-1.32-5.68c-0.24-1.32-0.38-2.58-0.44-3.75h-0.26c-0.06,1.17-0.21,2.42-0.44,3.75   c-0.24,1.33-0.67,3.23-1.32,5.68L369,126.35z"/>
	<path class="st2" d="M396.87,122.31V99.05h15.39v23.37c0,2.71,0.34,4.58,0.98,5.61c0.63,1.02,1.74,1.54,3.31,1.54   c1.54,0,2.64-0.53,3.31-1.58c0.66-1.05,0.98-2.91,0.98-5.56V99.05h15.42v23.26c0,3.05-0.22,5.56-0.6,7.53   c-0.41,1.97-1.06,3.62-1.92,4.95c-1.73,2.68-4.08,4.73-7.04,6.15c-2.96,1.43-6.35,2.14-10.16,2.14c-3.83,0-7.24-0.71-10.2-2.14   c-2.96-1.42-5.31-3.47-7.03-6.15c-0.86-1.31-1.49-2.94-1.88-4.89C397.06,127.94,396.87,125.41,396.87,122.31z"/>
	<path class="st2" d="M440.36,138.27l4.92-12.01c2.21,1.54,4.17,2.67,5.9,3.38c1.73,0.71,3.35,1.07,4.84,1.07   c1.05,0,1.89-0.2,2.49-0.6c0.6-0.4,0.91-0.94,0.91-1.63c0-1.19-1.51-2.1-4.55-2.72c-0.97-0.22-1.74-0.38-2.29-0.5   c-3.19-0.78-5.65-2.16-7.34-4.15c-1.7-2-2.55-4.47-2.55-7.44c0-4.61,1.64-8.36,4.95-11.25c3.3-2.89,7.63-4.33,12.97-4.33   c2.46,0,4.88,0.32,7.27,0.97c2.37,0.64,4.79,1.62,7.19,2.93l-4.67,11.22c-1.49-1.1-2.97-1.93-4.46-2.5   c-1.51-0.58-2.95-0.86-4.37-0.86c-1.07,0-1.89,0.18-2.48,0.54c-0.59,0.36-0.88,0.86-0.88,1.51c0,1.21,2.14,2.27,6.4,3.19   c0.69,0.16,1.22,0.28,1.58,0.35c2.95,0.67,5.28,2.02,6.98,4.07c1.7,2.05,2.54,4.53,2.54,7.44c0,4.74-1.71,8.62-5.13,11.63   c-3.43,3-7.89,4.51-13.38,4.51c-2.81,0-5.61-0.4-8.43-1.2C445.98,141.07,443.17,139.87,440.36,138.27z"/>
	<path class="st2" d="M480.89,141.93V99.05h28.68v11.62h-13.56v4.13h12.3v10.98h-12.3v4.51h13.92v11.63H480.89z"/>
	<path class="st2" d="M516.17,141.93V99.05h19.39c5.62,0,9.91,1.23,12.89,3.72c2.97,2.48,4.45,6.06,4.45,10.72   c0,3.04-0.74,5.56-2.24,7.53c-1.49,1.97-3.5,3.12-6.04,3.46l11.45,17.46h-17.28l-7.5-14.15v14.15H516.17z M531.28,110.09v8.37h2.4   c1.47,0,2.6-0.35,3.39-1.07c0.78-0.71,1.19-1.73,1.19-3.06c0-1.37-0.41-2.42-1.19-3.15c-0.79-0.73-1.92-1.1-3.39-1.1H531.28z"/>
</g>
<g>
	<path class="st2" d="M66.36,176.92V63.94h30.79v43.91h41.06V63.94h30.86v112.98h-30.86v-45.99H97.15v45.99H66.36z"/>
</g>
</svg>