<svg xmlns="http://www.w3.org/2000/svg" xmlns:xlink="http://www.w3.org/1999/xlink" width="160" height="49.493" viewBox="0 0 160 49.493" class="logo">
          <g transform="translate(0 0)">
            <g clip-path="url(#clip-path)">
              <path id="Pfad_99" data-name="Pfad 99" d="M20.16,12.625q-9.264,0-14.711,5.247A17.607,17.607,0,0,0,0,31.162,17.312,17.312,0,0,0,6.444,45.171q5.247,4.32,13.75,4.317,9.536,0,14.915-5.176a17.738,17.738,0,0,0,5.414-13.356,17.82,17.82,0,0,0-4.352-12.188q-5.417-6.142-16.011-6.143m4.884,25.509a5.936,5.936,0,0,1-4.782,2.225A6.071,6.071,0,0,1,15.447,38.1q-1.9-2.26-1.894-6.977,0-4.646,1.926-6.908a6.107,6.107,0,0,1,4.882-2.291,5.887,5.887,0,0,1,4.683,2.259q1.893,2.226,1.891,6.81,0,4.917-1.891,7.139" fill="#b10a0c"></path>
              <path d="M64.926,12.628a14.854,14.854,0,0,0-5.713,1.06,13.434,13.434,0,0,0-4.584,3.187V0H40.979V48.7H53.634V43.484a16.949,16.949,0,0,0,4.847,4.482,13.937,13.937,0,0,0,6.512,1.528,13.714,13.714,0,0,0,7.539-2.158,14.426,14.426,0,0,0,5.35-6.574,25.332,25.332,0,0,0,1.928-10.2q0-8.67-4.222-13.287a13.774,13.774,0,0,0-10.662-4.648m-.3,24.972a5.042,5.042,0,0,1-4.053,2,5.485,5.485,0,0,1-4.352-2.03q-1.69-2.052-1.692-6.609,0-4.153,1.727-6.176a5.672,5.672,0,0,1,4.518-2.06,4.851,4.851,0,0,1,3.884,1.96q1.629,1.959,1.628,6.144c0,3.169-.556,5.421-1.66,6.773" fill="#b10a0c"></path>
              <path d="M104.179,12.628a14.884,14.884,0,0,0-5.716,1.06,13.459,13.459,0,0,0-4.583,3.187V0H80.232V48.7H92.878V43.484a16.989,16.989,0,0,0,4.856,4.482,13.922,13.922,0,0,0,6.509,1.528,13.726,13.726,0,0,0,7.542-2.158,14.393,14.393,0,0,0,5.345-6.574,25.315,25.315,0,0,0,1.926-10.2q0-8.67-4.213-13.287a13.776,13.776,0,0,0-10.664-4.648m-.3,24.972a5.038,5.038,0,0,1-4.051,2,5.479,5.479,0,0,1-4.354-2.03q-1.695-2.052-1.695-6.609,0-4.153,1.732-6.176a5.662,5.662,0,0,1,4.511-2.06,4.851,4.851,0,0,1,3.889,1.96q1.632,1.959,1.628,6.144c0,3.169-.551,5.421-1.66,6.773" fill="#b10a0c"></path>
              <path d="M155.646,18.768q-5.41-6.142-16.009-6.143-9.269,0-14.711,5.247a17.6,17.6,0,0,0-5.451,13.29,17.308,17.308,0,0,0,6.446,14.009q5.244,4.32,13.75,4.317,9.532,0,14.912-5.176A17.74,17.74,0,0,0,160,30.956a17.807,17.807,0,0,0-4.354-12.188M144.514,38.134a5.919,5.919,0,0,1-4.778,2.225,6.075,6.075,0,0,1-4.815-2.257q-1.9-2.26-1.893-6.977,0-4.646,1.926-6.908a6.106,6.106,0,0,1,4.882-2.291,5.882,5.882,0,0,1,4.678,2.259q1.9,2.226,1.893,6.81,0,4.917-1.893,7.139" fill="#b10a0c"></path>
            </g>
          </g>
        </svg>