<?xml version="1.0" encoding="UTF-8"?>
<!-- Generator: Adobe Illustrator 22.1.0, SVG Export Plug-In . SVG Version: 6.00 Build 0)  -->
<svg xmlns="http://www.w3.org/2000/svg" xmlns:xlink="http://www.w3.org/1999/xlink" version="1.1" id="Ebene_1" x="0px" y="0px" viewBox="0 0 107.7 17" style="enable-background:new 0 0 107.7 17;" xml:space="preserve">
<style type="text/css">
	.st0{fill:#878787;}
	.st1{fill:#153D8A;}
</style>
<path class="st0" d="M36.6,15.6v-0.4c0-0.3-0.1-0.7-0.3-0.9c0.2-0.2,0.3-0.6,0.3-0.9v-0.4c0-0.7-0.6-1.3-1.3-1.3H33v5.4h2.2  C36,16.9,36.6,16.3,36.6,15.6 M35.7,13.4c0,0.2-0.2,0.4-0.4,0.4H34v-1.3h1.3c0.2,0,0.4,0.2,0.4,0.5V13.4z M35.7,15.6  c0,0.3-0.2,0.5-0.4,0.5H34v-1.4h1.3c0.2,0,0.4,0.2,0.4,0.5V15.6z M42.7,16.9l-1.8-5.4H40l-1.8,5.4h1l0.3-0.9h2l0.3,0.9H42.7z   M41.1,15.1h-1.4l0.7-2.4L41.1,15.1z M47.8,15.7v-4.1h-0.9v4.1c0,0.2-0.2,0.4-0.4,0.4h-0.9c-0.2,0-0.4-0.2-0.4-0.4v-4.1h-0.9v4.1  c0,0.7,0.6,1.3,1.3,1.3h0.9C47.2,17,47.8,16.4,47.8,15.7 M54.3,16.9v-5.4h-1L52,13.5l-1.3-1.9h-1v5.4h0.9v-3.9l1.3,2l1.3-2v3.9H54.3  z M60.5,16.9l-1.8-5.4h-0.9L56,16.9h1l0.3-0.9h2l0.3,0.9H60.5z M59,15.1h-1.4l0.7-2.4L59,15.1z M65.7,15.7v-0.3  c0-0.5-0.2-0.9-0.6-1.1l-1.8-0.9c-0.1-0.1-0.2-0.2-0.2-0.4v-0.1c0-0.2,0.2-0.5,0.4-0.5h0.7c0.2,0,0.4,0.2,0.4,0.5h0.9  c0-0.7-0.6-1.3-1.3-1.3h-0.8c-0.7,0-1.3,0.6-1.3,1.3v0.1c0,0.5,0.2,0.9,0.6,1.1l1.8,0.9c0.1,0.1,0.2,0.2,0.2,0.4v0.3  c0,0.2-0.2,0.5-0.4,0.5h-0.9c-0.2,0-0.4-0.2-0.4-0.5h-0.9c0,0.7,0.6,1.3,1.3,1.3h0.9C65.1,17,65.7,16.4,65.7,15.7 M70.9,15.7H70  c0,0.2-0.2,0.5-0.4,0.5h-0.9c-0.2,0-0.4-0.2-0.4-0.4v-2.9c0-0.2,0.2-0.4,0.4-0.4h0.9c0.2,0,0.4,0.2,0.4,0.5h0.9  c0-0.7-0.6-1.3-1.3-1.3h-0.9c-0.7,0-1.3,0.6-1.3,1.3v2.8c0,0.7,0.6,1.3,1.3,1.3h0.9C70.3,17,70.9,16.4,70.9,15.7 M76.4,16.9v-5.4  h-0.9v2.2h-1.7v-2.2h-0.9v5.4h0.9v-2.3h1.7v2.3H76.4z M79.4,11.6h-0.9v5.4h0.9V11.6z M85,16.9v-5.4h-0.9v3.6l-1.7-3.6h-0.9v5.4h0.9  v-3.4l1.7,3.4H85z M90.1,16.9v-0.9h-2.2v-1.4h2.2v-0.9h-2.2v-1.3h2.2v-0.9h-3.1v5.4H90.1z M95.6,16.9v-5.4h-0.9v3.6L93,11.6H92v5.4  h0.9v-3.4l1.7,3.4H95.6z"></path>
<path class="st1" d="M42.7,6.2c0.1-0.3,0.8-2.6,1-3.4c0.2,0.7,0.9,3.1,1,3.4H42.7z M44.6,0.1h-1.8l-3.1,9.4h2c0,0,0.4-1.4,0.5-1.6  h3.1c0.1,0.2,0.5,1.6,0.5,1.6h2L44.6,0.1z"></path>
<path class="st1" d="M35,0c-1.3,0-2.4,1.1-2.4,2.4v0.1c0,0.9,0.4,1.7,1.1,2.1l3.1,1.6c0.2,0.1,0.3,0.3,0.3,0.5v0.4  c0,0.3-0.3,0.6-0.6,0.6h-1.5c-0.3,0-0.6-0.3-0.6-0.6V7.1h-1.9v0.2c0,1.3,1.1,2.4,2.4,2.4h1.5c1.3,0,2.4-1.1,2.4-2.4V6.8  c0-1-0.4-1.7-1.1-2.1l-3.1-1.6c-0.2-0.1-0.3-0.3-0.3-0.5V2.4c0-0.3,0.3-0.6,0.6-0.6h1.2c0.3,0,0.6,0.3,0.6,0.6v0.2h1.9V2.4  c0-1.3-1.1-2.4-2.4-2.4H35z"></path>
<path class="st1" d="M52.3,2.8c0.2,0.7,0.9,3.1,1,3.4h-2C51.4,5.9,52.1,3.6,52.3,2.8 M51.4,0.1l-3.1,9.4h2c0,0,0.4-1.4,0.5-1.6h3.1  c0.1,0.2,0.5,1.6,0.5,1.6h2l-3.1-9.4H51.4z"></path>
<path class="st1" d="M61.3,1.9c0.3,0,0.6,0.3,0.6,0.6v0.9c0,0.3-0.3,0.6-0.6,0.6h-2V1.9H61.3z M57.4,0.1v9.4h1.9V5.8H60  c0.1,0.2,1.9,3.7,1.9,3.7H64c0,0-1.9-3.6-2-3.8c1.1-0.3,1.8-1.2,1.8-2.3V2.6c0-1.3-1.1-2.4-2.4-2.4H57.4z"></path>
<rect x="64.9" y="4.7" class="st1" width="4" height="1.8"></rect>
<path class="st1" d="M76.2,0.1c0,0-1.8,2.7-2,3.1c-0.2-0.3-2.1-3.1-2.1-3.1h-1.9v9.4h1.9V3.3c0.4,0.7,2.1,3.2,2.1,3.2  s1.7-2.5,2.1-3.2v6.2h1.9V0.1H76.2z"></path>
<path class="st1" d="M81.4,7.3V2.4c0-0.3,0.3-0.6,0.6-0.6h1.4c0.3,0,0.6,0.3,0.6,0.6v4.8c0,0.3-0.3,0.6-0.6,0.6H82  C81.7,7.9,81.4,7.6,81.4,7.3 M81.9,0c-1.3,0-2.4,1.1-2.4,2.4v4.8c0,1.3,1.1,2.4,2.4,2.4h1.5c1.3,0,2.4-1.1,2.4-2.4V2.5  c0-1.3-1.1-2.4-2.4-2.4H81.9z"></path>
<path class="st1" d="M89.7,0c-1.3,0-2.4,1.1-2.4,2.4v0.1c0,0.9,0.4,1.7,1.1,2.1l3.1,1.6c0.2,0.1,0.3,0.3,0.3,0.5v0.4  c0,0.3-0.3,0.6-0.6,0.6h-1.5c-0.3,0-0.6-0.3-0.6-0.6V7.1h-1.9v0.2c0,1.3,1.1,2.4,2.4,2.4h1.5c1.3,0,2.4-1.1,2.4-2.4V6.8  c0-1-0.4-1.7-1.1-2.1l-3.1-1.6c-0.2-0.1-0.3-0.3-0.3-0.5V2.4c0-0.3,0.3-0.6,0.6-0.6H91c0.3,0,0.6,0.3,0.6,0.6v0.2h1.9V2.4  C93.5,1.1,92.4,0,91,0H89.7z"></path>
<polygon class="st1" points="95,0.1 95,9.6 100.7,9.6 100.7,7.8 96.9,7.8 96.9,5.7 100.7,5.7 100.7,3.9 96.9,3.9 96.9,1.9   100.7,1.9 100.7,0.1 "></polygon>
<polygon class="st1" points="102.1,0.1 102.1,9.6 107.7,9.6 107.7,7.8 103.9,7.8 103.9,0.1 "></polygon>
<path class="st1" d="M7.1,17H0l1.5-2.5h4.2L14,0h2.9L7.1,17z M27.2,2.5h-4.2L14.7,17h-2.9l9.8-17h7.1L27.2,2.5z"></path>
</svg>
